
<svg width="512" height="512" viewBox="0 0 512 512" fill="none" xmlns="http://www.w3.org/2000/svg">
<rect width="512" height="512" rx="128" fill="#0F172A"/>
<path d="M256 96C264.837 96 272 103.163 272 112V130.059C299.761 134.627 325.298 145.203 347.314 160.157L360.081 147.391C366.33 141.142 376.46 141.142 382.709 147.391L404.609 169.291C410.858 175.54 410.858 185.67 404.609 191.919L391.843 204.686C406.797 226.702 417.373 252.239 421.941 280H440C448.837 280 456 287.163 456 296V326.96C456 335.797 448.837 342.96 440 342.96H421.941C417.373 370.721 406.797 396.258 391.843 418.274L404.609 431.041C410.858 437.29 410.858 447.42 404.609 453.669L382.709 475.569C376.46 481.818 366.33 481.818 360.081 475.569L347.314 462.803C325.298 477.757 299.761 488.333 272 492.901V511C272 519.837 264.837 527 256 527H225.04C216.203 527 209.04 519.837 209.04 511V492.901C181.279 488.333 155.742 477.757 133.726 462.803L120.959 475.569C114.71 481.818 104.58 481.818 98.331 475.569L76.431 453.669C70.182 447.42 70.182 437.29 76.431 431.041L89.197 418.274C74.243 396.258 63.667 370.721 59.099 342.96H41.04C32.203 342.96 25.04 335.797 25.04 326.96V296C25.04 287.163 32.203 280 41.04 280H59.099C63.667 252.239 74.243 226.702 89.197 204.686L76.431 191.919C70.182 185.67 70.182 175.54 76.431 169.291L98.331 147.391C104.58 141.142 114.71 141.142 120.959 147.391L133.726 160.157C155.742 145.203 181.279 134.627 209.04 130.059V112C209.04 103.163 216.203 96 225.04 96H256Z" fill="url(#paint0_linear_logo)"/>
<circle cx="256" cy="312" r="110" fill="#1E293B" stroke="#3B82F6" stroke-width="16"/>
<path d="M256 190V230M256 394V434M190 312H230M394 312H434" stroke="#3B82F6" stroke-width="12" stroke-linecap="round"/>
<path d="M256 250C235 250 220 265 220 286C220 307 235 312 256 312C277 312 292 317 292 338C292 359 277 374 256 374M256 250V234M256 374V390" stroke="#10B981" stroke-width="24" stroke-linecap="round" stroke-linejoin="round"/>
<defs>
<linearGradient id="paint0_linear_logo" x1="56" y1="96" x2="456" y2="527" gradientUnits="userSpaceOnUse">
<stop stop-color="#2563EB"/>
<stop offset="1" stop-color="#1E40AF"/>
</linearGradient>
</defs>
</svg>
